<?xml version="1.0" encoding="UTF-8" standalone="no"?>
<svg
   xmlns:dc="http://purl.org/dc/elements/1.1/"
   xmlns:cc="http://creativecommons.org/ns#"
   xmlns:rdf="http://www.w3.org/1999/02/22-rdf-syntax-ns#"
   xmlns:svg="http://www.w3.org/2000/svg"
   xmlns="http://www.w3.org/2000/svg"
   xmlns:sodipodi="http://sodipodi.sourceforge.net/DTD/sodipodi-0.dtd"
   xmlns:inkscape="http://www.inkscape.org/namespaces/inkscape"
   version="1.0"
   width="129.0522mm"
   height="145.73141mm"
   id="svg21"
   sodipodi:docname="tsv.emf"
   inkscape:version="1.0.2-2 (e86c870879, 2021-01-15)">
  <metadata
     id="metadata25">
    <rdf:RDF>
      <cc:Work
         rdf:about="">
        <dc:format>image/svg+xml</dc:format>
        <dc:type
           rdf:resource="http://purl.org/dc/dcmitype/StillImage" />
        <dc:title></dc:title>
      </cc:Work>
    </rdf:RDF>
  </metadata>
  <sodipodi:namedview
     pagecolor="#ffffff"
     bordercolor="#666666"
     borderopacity="1"
     objecttolerance="10"
     gridtolerance="10"
     guidetolerance="10"
     inkscape:pageopacity="0"
     inkscape:pageshadow="2"
     inkscape:window-width="1680"
     inkscape:window-height="987"
     id="namedview23"
     showgrid="false"
     fit-margin-top="0"
     fit-margin-left="0"
     fit-margin-right="0"
     fit-margin-bottom="0"
     inkscape:zoom="0.47092525"
     inkscape:cx="-193.72827"
     inkscape:cy="118.62098"
     inkscape:window-x="-8"
     inkscape:window-y="-8"
     inkscape:window-maximized="1"
     inkscape:current-layer="svg21" />
  <defs
     id="defs3">
    <pattern
       id="EMFhbasepattern"
       patternUnits="userSpaceOnUse"
       width="6"
       height="6"
       x="0"
       y="0" />
  </defs>
  <path
     style="fill:#000000;fill-opacity:1;fill-rule:nonzero;stroke:none"
     d="m -184.87863,197.03854 h -13.27991 v -63.83953 c 0,-0.39999 -0.08,-0.79999 -0.08,-1.19999 -0.08,-2.55998 -0.87999,-5.03996 -2.55998,-6.95995 L -307.03773,3.6799727 c 0,0 -0.08,0 -0.08,-0.079999 -0.63999,-0.7199946 -1.35999,-1.2799905 -2.15998,-1.7599869 -0.24,-0.1599988 -0.4,-0.3199977 -0.72,-0.4799965 -0.63999,-0.3199976 -1.35999,-0.63999523 -2.07998,-0.87999346 -0.24,0 -0.4,-0.0799994 -0.56,-0.15999881 C -313.43768,0.07999941 -314.31768,0 -315.11767,0 h -261.03807 c -11.91991,0 -21.59984,9.6799283 -21.59984,21.59984 v 175.4387 h -13.1999 c -17.03987,0 -30.87977,13.7599 -30.87977,30.87977 v 160.47881 c 0,17.03988 13.8399,30.87977 30.87977,30.87977 h 13.1999 v 109.91919 c 0,11.91991 9.67993,21.59984 21.59984,21.59984 h 356.39736 c 11.91992,0 21.59984,-9.67993 21.59984,-21.59984 V 419.27689 h 13.27991 c 17.03987,0 30.79977,-13.83989 30.79977,-30.87977 V 227.91831 c 0,-17.11987 -13.7599,-30.87977 -30.79977,-30.87977 z M -576.15574,21.59984 h 250.23815 v 110.47918 c 0,5.99996 4.79996,10.79992 10.79992,10.79992 h 95.35929 v 54.1596 h -356.39736 z m 356.39736,501.75628 H -576.15574 V 419.27689 h 356.39736 z"
     id="path5" />
  <text
     xml:space="preserve"
     style="font-style:normal;font-variant:normal;font-weight:700;font-size:198.25px;line-height:125%;font-family:Arial;text-align:start;letter-spacing:0px;word-spacing:0px;text-anchor:start;fill:#000000;fill-opacity:1;stroke:none"
     x="-601.83557"
     y="378.71719"
     id="text11"><tspan
       sodipodi:role="line"
       x="-601.83557"
       y="378.71719"
       id="tspan9"><tspan
         style="font-style:normal;font-variant:normal;font-weight:700;font-size:198.25px;font-family:Arial;fill:#ffffff"
         id="tspan7"
         dy="0"
         dx="0">TSV</tspan></tspan></text>
  <path
     style="fill:#000000;fill-opacity:1;fill-rule:nonzero;stroke:none"
     d="m 456.87665,197.03854 h -13.1999 v -63.83953 c 0,-0.39999 -0.08,-0.79999 -0.08,-1.19999 -0.08,-2.55998 -0.88,-5.03996 -2.56,-6.95995 L 334.79752,3.6799727 c 0,0 -0.08,0 -0.08,-0.079999 -0.64,-0.7199946 -1.35999,-1.2799905 -2.15999,-1.7599869 -0.24,-0.1599988 -0.47999,-0.3199977 -0.71999,-0.4799965 -0.64,-0.3199976 -1.35999,-0.63999523 -2.07999,-0.87999346 -0.24,0 -0.39999,-0.0799994 -0.63999,-0.15999881 C 328.31756,0.07999941 327.51757,0 326.63758,0 H 65.67951 C 53.7596,0 44.07967,9.6799283 44.07967,21.59984 v 175.4387 H 30.87977 C 13.83989,197.03854 0,210.79844 0,227.91831 v 160.47881 c 0,17.03988 13.83989,30.87977 30.87977,30.87977 h 13.1999 v 109.91919 c 0,11.91991 9.67993,21.59984 21.59984,21.59984 h 356.39734 c 11.9199,0 21.5999,-9.67993 21.5999,-21.59984 V 419.27689 h 13.1999 c 17.0398,0 30.8797,-13.83989 30.8797,-30.87977 V 227.91831 c 0,-17.11987 -13.8399,-30.87977 -30.8797,-30.87977 z M 65.67951,21.59984 h 250.15815 v 110.47918 c 0,5.99996 4.87996,10.79992 10.79992,10.79992 h 95.43927 v 54.1596 H 65.67951 Z M 422.07685,523.35612 H 65.67951 V 419.27689 h 356.39734 z"
     id="path13" />
  <text
     xml:space="preserve"
     style="font-style:normal;font-variant:normal;font-weight:700;font-size:198.25px;line-height:125%;font-family:Arial;text-align:start;letter-spacing:0px;word-spacing:0px;text-anchor:start;fill:#000000;fill-opacity:1;stroke:none"
     x="35.51973"
     y="376.23721"
     id="text19"><tspan
       sodipodi:role="line"
       x="35.51973"
       y="376.23721"
       id="tspan17"><tspan
         dx="0"
         dy="0"
         style="font-style:normal;font-variant:normal;font-weight:700;font-size:198.25px;font-family:Arial;fill:#ffffff"
         id="tspan15">XML</tspan></tspan></text>
</svg>
